HIERARCHY
ROOT Hips
{
  OFFSET -35.4901 99.2528 17.4586
  CHANNELS 6 Xposition Yposition Zposition Zrotation Xrotation Yrotation
  JOINT LeftUpLeg
  {
    OFFSET 8.64259 1.95398 -2.38835
    CHANNELS 3 Zrotation Xrotation Yrotation
    JOINT LeftLeg
    {
      OFFSET 43.7702 0 0
      CHANNELS 3 Zrotation Xrotation Yrotation
      JOINT LeftFoot
      {
        OFFSET 40.6238 0 0
        CHANNELS 3 Zrotation Xrotation Yrotation
        JOINT LeftToeBase
        {
          OFFSET 12.7242 0 0
          CHANNELS 3 Zrotation Xrotation Yrotation
          End Site
          {
            OFFSET 0 0 0
          }
        }
      }
    }
  }
  JOINT RightUpLeg
  {
    OFFSET -8.2249 1.95398 -2.59336
    CHANNELS 3 Zrotation Xrotation Yrotation
    JOINT RightLeg
    {
      OFFSET 43.5653 0 0
      CHANNELS 3 Zrotation Xrotation Yrotation
      JOINT RightFoot
      {
        OFFSET 40.6238 0 0
        CHANNELS 3 Zrotation Xrotation Yrotation
        JOINT RightToeBase
        {
          OFFSET 12.7242 0 0
          CHANNELS 3 Zrotation Xrotation Yrotation
          End Site
          {
            OFFSET 0 0 0
          }
        }
      }
    }
  }
  JOINT Spine
  {
    OFFSET 0.165834 0.87714 6.61349
    CHANNELS 3 Zrotation Xrotation Yrotation
    JOINT Spine1
    {
      OFFSET 7.38963 1.71661e-005 0
      CHANNELS 3 Zrotation Xrotation Yrotation
      JOINT Spine2
      {
        OFFSET 11.9445 1.14441e-005 0
        CHANNELS 3 Zrotation Xrotation Yrotation
        JOINT Spine3
        {
          OFFSET 14.7254 4.19617e-005 0
          CHANNELS 3 Zrotation Xrotation Yrotation
          JOINT Spine4
          {
            OFFSET 10.9679 0 0
            CHANNELS 3 Zrotation Xrotation Yrotation
            JOINT RightShoulder
            {
              OFFSET 2.46616 -1.6653 3.69651
              CHANNELS 3 Zrotation Xrotation Yrotation
              JOINT RightArm
              {
                OFFSET 13.0012 0 0
                CHANNELS 3 Zrotation Xrotation Yrotation
                JOINT RightForeArm
                {
                  OFFSET 28.7848 1.52588e-005 0
                  CHANNELS 3 Zrotation Xrotation Yrotation
                  JOINT RightHand
                  {
                    OFFSET 26.5688 1.52588e-005 0
                    CHANNELS 3 Zrotation Xrotation Yrotation
                    End Site
                    {
                      OFFSET 0 0 0
                    }
                  }
                }
              }
            }
            JOINT LeftShoulder
            {
              OFFSET 2.38034 -1.29275 -3.7523
              CHANNELS 3 Zrotation Xrotation Yrotation
              JOINT LeftArm
              {
                OFFSET 16.3182 6.10351e-005 0
                CHANNELS 3 Zrotation Xrotation Yrotation
                JOINT LeftForeArm
                {
                  OFFSET 27.0901 0 0
                  CHANNELS 3 Zrotation Xrotation Yrotation
                  JOINT LeftHand
                  {
                    OFFSET 24.5451 1.52588e-005 0
                    CHANNELS 3 Zrotation Xrotation Yrotation
                    End Site
                    {
                      OFFSET 0 0 0
                    }
                  }
                }
              }
            }
            JOINT Neck
            {
              OFFSET 5.0226 -0.0266342 0
              CHANNELS 3 Zrotation Xrotation Yrotation
              JOINT Head
              {
                OFFSET 6.69364 2.86102e-005 0
                CHANNELS 3 Zrotation Xrotation Yrotation
                End Site
                {
                  OFFSET 0 0 0
                }
              }
            }
          }
        }
      }
    }
  }
}
MOTION
Frames:	12
Frame Time:	0.0416667
66.8552 91.7251 -105.48 89.3813 51.2048 90.3679 -177.018 38.0701 86.8533 -41.4261 18.7053 -1.188 64.406 2.36239 6.36434 17.6791 3.63879 -4.10541 172.38 -19.8539 92.26 -50.2195 -7.75488 -0.321111 62.9721 -1.50184 -0.123687 20.9327 -1.8706 5.14926 2.0725 8.24166 -89.5583 10.3866 4.33118 0.496991 -1.27712 4.34885 0.305514 -23.8627 3.98134 1.77773 -3.85008 3.98134 1.77772 89.6404 -25.8671 -109.199 35.5238 -13.1524 -7.7804 -37.988 -9.28512 -80.3996 -29.1223 3.21948 -23.3675 -85.4976 -50.0989 85.5063 -23.9954 20.8386 29.9512 62.4234 -25.5768 -90.9618 22.3572 -0.905895 -8.06684 15.8342 -9.70347 -3.7339 -9.09772 -8.03972 -6.11256 
73.8575 89.2473 -114.06 97.0962 51.9816 78.3936 -173.009 33.1554 80.4441 -57.0919 19.3075 -2.09191 76.5531 8.12546 4.82084 11.9601 1.23057 -0.259529 168.806 -11.7213 83.1903 -74.6396 -7.85588 -1.70395 66.8672 -3.67952 -4.04659 15.0877 -3.09578 7.57035 1.07772 8.69384 -88.9578 9.46196 2.61805 1.86875 -2.20753 2.69774 1.75169 -24.7449 1.93555 2.56906 -4.7322 1.93556 2.56906 88.5631 -31.2355 -109.081 38.5091 -12.6942 -4.50789 -43.2318 -15.8462 -77.1841 -29.0815 1.59124 -17.5247 -84.8341 -53.9363 86.9723 -19.0677 22.7656 11.5602 58.5976 -19.3067 -89.0677 19.8049 -0.959372 -8.801 15.5334 -7.92317 -5.50415 -5.55158 -6.08488 -3.5709 
79.4897 88.11 -121.849 95.6204 49.7999 76.2986 -170.924 28.3341 77.3052 -61.4986 17.7392 -3.81728 81.2182 11.3376 9.40461 23.145 4.72216 -6.584 175.062 5.15811 79.2791 -94.2933 -7.86878 -2.40807 71.3295 -6.59819 -6.08874 8.12475 -3.26656 7.58503 0.520859 8.49381 -88.4293 9.85184 1.75009 2.97666 -1.82118 1.87936 2.89682 -24.3314 0.775173 3.36458 -4.31876 0.775194 3.36458 89.2403 -33.1294 -107.05 44.5579 -8.33311 3.81534 -41.9689 -17.6251 -77.4172 -26.5043 1.84419 -20.1605 -84.7579 -53.3283 87.0105 -8.44981 26.1888 -13.2812 61.986 -16.7797 -86.1141 9.59712 -0.977539 -12.5518 17.0062 -6.04409 -5.89605 -7.75112 -3.97744 -3.83699 
85.3681 89.1701 -128.558 93.7343 48.4335 79.8299 -170.646 23.145 80.6415 -62.0149 16.9249 -3.87488 84.3609 12.456 7.13403 24.3892 4.03932 -5.92512 -178.745 22.5673 81.981 -99.2424 -8.6291 -2.01428 73.0084 -7.99491 -7.53099 8.16052 -4.23079 9.2175 -0.0619398 7.9931 -88.7012 10.8783 0.477226 2.53986 -0.794995 0.588537 2.5164 -23.3102 -0.307879 2.56589 -3.29756 -0.307881 2.56588 89.6529 -32.4987 -106.509 47.0954 -9.31233 14.4838 -34.6155 -13.0211 -76.5359 -25.6028 2.65648 -23.0784 -84.0551 -51.8472 87.8717 -0.880799 24.8712 -26.6295 54.2797 -18.8377 -89.2243 10.95 -1.52513 -14.5444 14.9656 -2.28067 -4.66389 -7.30362 -0.846553 -2.76328 
92.7358 92.3044 -135.503 97.0377 46.6639 80.702 -170.68 12.0475 87.3487 -55.957 18.2173 -3.85277 77.9526 9.27053 8.34877 37.9503 5.33607 -11.9617 -177.884 29.5059 86.84 -88.7883 -1.63093 -2.40913 75.1192 -9.03586 -7.3481 7.59152 -4.39651 9.4581 -0.638173 8.04607 -89.2023 10.7852 -0.902698 1.66818 -0.886611 -0.828406 1.70627 -23.4182 -1.36227 1.31985 -3.40561 -1.36229 1.31983 89.3124 -31.0914 -107.685 46.0884 -11.7836 20.7849 -35.8174 -11.9465 -74.9076 -27.2654 2.88382 -23.0441 -84.721 -46.8084 86.2431 -7.2924 14.4393 -27.8422 47.2751 -17.4511 -95.7698 38.1797 1.10726 -2.80122 16.6121 1.39941 -4.04303 -8.82971 2.55767 -0.810722 
100.478 95.8556 -143.518 98.462 43.9976 83.4593 -170.86 -1.05275 91.3531 -43.9861 18.3055 -3.23681 69.5143 4.74414 6.03951 44.9759 3.16474 -9.59415 -178.263 30.5009 92.5438 -68.3394 -1.22966 -2.99517 72.3956 -7.41385 -7.6004 9.25653 -3.31203 7.71132 -0.906622 8.04214 -89.7987 10.7946 -1.71235 0.559267 -0.875399 -1.68608 0.634104 -23.4196 -1.80124 0.0186212 -3.40695 -1.80123 0.0186221 89.6434 -29.3912 -107.706 44.7947 -11.4398 23.4382 -37.9961 -15.2416 -71.7352 -25.1458 2.32159 -22.7019 -85.1058 -44.9889 85.3829 -9.71082 10.7945 -28.3667 46.2515 -16.9459 -96.5976 40.1072 1.36419 -0.628302 17.8208 4.043 -2.68843 -11.2005 4.6585 0.736251 
108.235 98.2713 -151.899 98.124 42.7004 86.179 -172.159 -12.3727 92.6178 -32.2918 17.8867 -0.725546 62.0114 1.09178 3.46853 41.0211 0.735803 -3.37921 179.736 26.5529 95.4818 -40.9263 -9.06716 -2.32749 66.7518 -4.10992 -3.25943 13.3601 -2.42027 6.22989 -1.06759 7.74281 -90.2787 11.3853 -2.25417 -0.327233 -0.283692 -2.26639 -0.227657 -22.832 -2.05158 -0.989846 -2.81935 -2.05157 -0.989844 90.2006 -27.2522 -107.44 45.5919 -9.47907 26.7199 -33.7858 -18.4832 -66.8791 -26.4316 2.8003 -23.8148 -85.513 -44.522 84.6591 -10.1033 13.8104 -27.0395 50.9429 -19.9525 -94.9633 13.7138 -0.936092 -10.1215 17.1748 5.50688 -1.48518 -14.4405 5.54277 2.2988 
115.958 98.444 -160.175 96.8815 42.6957 87.217 -172.846 -17.981 92.7704 -29.8777 14.3758 0.524976 61.9186 0.931457 0.138644 31.9762 -2.5928 4.5153 177.496 20.9674 96.3252 -14.4011 -12.8003 -0.270191 61.9299 -2.4143 -2.09634 17.922 -1.64264 4.67881 -1.14588 7.39388 -90.5293 12.0794 -2.52805 -0.779939 0.410746 -2.55991 -0.667868 -22.138 -2.17675 -1.50393 -2.12537 -2.17675 -1.50393 90.6667 -26.4048 -106.818 44.3481 -5.96561 29.7151 -30.0188 -19.7144 -63.7835 -23.8547 2.5877 -24.45 -85.3936 -44.1483 84.7931 -12.4328 15.7048 -28.6387 52.5038 -18.1374 -92.8793 6.82125 -0.850904 -13.6654 16.6644 5.91328 -0.531927 -15.7464 5.57626 2.819 
123.576 96.6711 -167.803 98.5386 44.244 84.2955 -172.07 -21.2047 92.9872 -34.9261 12.8726 0.740943 66.9502 3.2843 2.15515 32.0164 -2.32829 3.90328 176.283 18.0532 95.1802 -6.60116 -11.1941 0.168029 60.0084 -1.82481 -0.16847 22.8007 -0.447721 1.76543 -1.30424 7.31451 -90.4559 12.2401 -2.80834 -0.596565 0.572105 -2.83188 -0.472292 -21.9822 -2.49917 -1.41347 -1.96956 -2.49916 -1.41347 90.4544 -26.8915 -107.061 42.0777 -2.3513 29.8324 -25.4502 -19.6036 -58.6471 -22.4836 2.3486 -23.4747 -85.1369 -45.6068 85.4232 -13.2963 16.4304 -31.8056 44.1013 -13.2271 -90.4276 13.9876 -1.06211 -11.1087 16.2873 5.42831 -0.481437 -14.9531 5.13137 2.61848 
130.488 93.7575 -174.797 101.89 45.4261 80.2725 -168.944 -20.1835 95.485 -46.4235 10.7101 0.418497 67.26 3.81768 1.75463 34.0455 -1.43201 2.17094 174.003 25.9343 93.904 -30.4987 -14.957 1.00641 60.1245 -0.148522 -0.0847148 2.79551 0.97242 0.93472 -1.30797 7.37842 -90.1611 12.1198 -2.67619 -0.0260277 0.451597 -2.67471 0.091856 -22.1041 -2.54457 -0.829656 -2.09148 -2.54455 -0.829657 90.2326 -28.9578 -106.696 41.1188 -0.987362 26.6586 -19.955 -22.1918 -50.5179 -26.2216 2.36661 -20.2754 -85.6714 -45.4152 84.5455 -14.7156 17.89 -32.4172 41.5448 -8.78575 -85.7048 12.2895 -1.32197 -13.92 15.9476 3.87121 -3.33921 -14.0519 4.31796 3.67034 
136.916 90.5788 -180.257 104.324 46.2442 81.8584 -163.929 -10.7423 103.53 -64.2676 7.77902 2.25758 69.4691 4.85463 0.9599 37.6062 -0.957589 0.996288 172.651 30.1605 98.8233 -52.1499 -15.3097 2.52788 70.7655 -5.81643 -8.72699 6.47395 -1.32595 4.3252 -0.938187 7.49378 -90.6591 11.8823 -2.17615 -1.08457 0.212935 -2.22177 -0.987719 -22.3294 -1.74957 -1.68851 -2.31677 -1.74957 -1.68852 91.3469 -28.935 -104.462 41.7411 -0.146284 19.9669 -16.4562 -26.0613 -43.281 -31.6824 1.41882 -13.7402 -85.4366 -51.0706 85.7291 -13.895 20.9076 -33.6601 47.746 -1.56995 -79.0357 6.58354 -0.845213 -14.0148 13.6985 2.91233 0.759697 -9.91419 2.50192 1.97552 
141.989 89.7628 -184.526 106.105 48.2773 84.0569 -167.32 4.24229 104.464 -79.9345 11.076 6.37989 70.3837 5.52936 4.81425 35.5497 0.679196 -1.78331 170.451 25.4646 101.584 -55.4247 -14.2019 4.60208 77.5927 -9.82636 -8.97102 4.06157 -1.80345 5.14859 -0.806 7.67641 -91.1423 11.495 -2.13735 -2.05467 -0.175659 -2.22568 -1.95863 -22.7047 -1.42128 -2.60181 -2.69206 -1.42126 -2.6018 91.7038 -31.4181 -102.882 37.819 -4.46075 5.02263 -7.11131 -30.2659 -27.7029 -30.2316 0.551303 -10.7121 -85.8127 -53.3314 85.4778 -21.466 17.8826 -28.2844 51.7173 14.1428 -70.4637 4.56861 -0.733455 -14.8324 13.0941 2.15876 1.88374 -8.53156 1.50128 2.19493 
